<svg width="24" height="28" viewBox="0 0 24 28" fill="none" xmlns="http://www.w3.org/2000/svg">
<path d="M11.8787 0C16.1749 0 19.6318 3.3807 19.6318 7.55441V9.70108C22.0431 10.4537 23.8 12.6366 23.8 15.2438V22.1554C23.8 25.3831 21.1241 28 17.8251 28H5.97632C2.6759 28 0 25.3831 0 22.1554V15.2438C0 12.6366 1.75833 10.4537 4.1682 9.70108V7.55441C4.18243 3.3807 7.63933 0 11.8787 0ZM11.8929 15.938C11.21 15.938 10.6552 16.4806 10.6552 17.1484V20.2369C10.6552 20.9186 11.21 21.4612 11.8929 21.4612C12.59 21.4612 13.1448 20.9186 13.1448 20.2369V17.1484C13.1448 16.4806 12.59 15.938 11.8929 15.938ZM11.9071 2.43466C9.01925 2.43466 6.67197 4.71629 6.65774 7.52658V9.39919H17.1423V7.55441C17.1423 4.7302 14.795 2.43466 11.9071 2.43466Z" fill="#A5A7B4"/>
</svg>
