<svg width="12" height="15" viewBox="0 0 12 15" fill="none" xmlns="http://www.w3.org/2000/svg">
<path d="M11.5569 8.5572C11.4891 8.6268 11.2331 8.9244 10.9946 9.1692C9.59649 10.7088 5.94915 13.2288 4.04014 13.998C3.75022 14.1216 3.01724 14.3832 2.62562 14.4C2.25036 14.4 1.89264 14.3136 1.55129 14.1384C1.12577 13.8936 0.784413 13.5084 0.59737 13.0536C0.47696 12.738 0.289917 11.7936 0.289917 11.7768C0.102874 10.7436 0 9.0648 0 7.2096C0 5.442 0.102874 3.8316 0.256016 2.7828C0.273551 2.766 0.460594 1.5924 0.665173 1.1904C1.04043 0.456 1.7734 0 2.55782 0L2.62562 0C3.13648 0.018 4.21081 0.474 4.21081 0.4908C6.01695 1.2612 9.58013 3.6576 11.0122 5.25C11.0122 5.25 11.4155 5.6592 11.5908 5.9148C11.8644 6.282 12 6.7368 12 7.1916C12 7.6992 11.8469 8.172 11.5569 8.5572Z" fill="#E6E9FF"/>
</svg>
