<svg width="32" height="32" viewBox="0 0 32 32" fill="none" xmlns="http://www.w3.org/2000/svg">
<rect width="32" height="32" rx="6" fill="#37BEB0"/>
<path d="M16.0001 18.0456C17.1295 18.0456 18.0451 17.13 18.0451 16.0006C18.0451 14.8711 17.1295 13.9556 16.0001 13.9556C14.8707 13.9556 13.9551 14.8711 13.9551 16.0006C13.9551 17.13 14.8707 18.0456 16.0001 18.0456Z" fill="#F8F8F8"/>
<path d="M15.9991 10.915C14.9933 10.915 14.0102 11.2133 13.174 11.772C12.3378 12.3308 11.686 13.1249 11.3011 14.0541C10.9163 14.9833 10.8156 16.0057 11.0118 16.9921C11.208 17.9785 11.6923 18.8845 12.4034 19.5957C13.1146 20.3068 14.0206 20.7911 15.007 20.9873C15.9934 21.1835 17.0158 21.0828 17.945 20.698C18.8742 20.3131 19.6683 19.6613 20.2271 18.8251C20.7858 17.9889 21.0841 17.0058 21.0841 16C21.0827 14.6518 20.5466 13.3592 19.5932 12.4059C18.6399 11.4525 17.3473 10.9164 15.9991 10.915ZM15.9991 18.915C15.4165 18.915 14.8471 18.7419 14.3631 18.4178C13.8791 18.0936 13.5023 17.6329 13.2805 17.0943C13.0588 16.5556 13.002 15.9632 13.1175 15.3922C13.233 14.8212 13.5155 14.2974 13.9292 13.8873C14.3428 13.4771 14.869 13.1991 15.441 13.0885C16.0129 12.9779 16.6048 13.0397 17.1416 13.2661C17.6783 13.4924 18.1358 13.8731 18.4558 14.3599C18.7758 14.8467 18.944 15.4175 18.9391 16C18.9391 16.7798 18.6293 17.5276 18.078 18.0789C17.5266 18.6303 16.7788 18.94 15.9991 18.94V18.915Z" fill="#F8F8F8"/>
<path d="M16 8C14.4178 8 12.871 8.46919 11.5554 9.34824C10.2398 10.2273 9.21447 11.4767 8.60897 12.9385C8.00347 14.4003 7.84504 16.0089 8.15372 17.5607C8.4624 19.1126 9.22433 20.538 10.3431 21.6569C11.462 22.7757 12.8874 23.5376 14.4393 23.8463C15.9911 24.155 17.5997 23.9965 19.0615 23.391C20.5233 22.7855 21.7727 21.7602 22.6518 20.4446C23.5308 19.129 24 17.5822 24 16C24 13.8783 23.1571 11.8434 21.6569 10.3431C20.1566 8.84285 18.1217 8 16 8ZM16 21.915C14.8301 21.915 13.6865 21.5681 12.7138 20.9181C11.7411 20.2682 10.9829 19.3444 10.5353 18.2636C10.0876 17.1827 9.97043 15.9934 10.1987 14.846C10.4269 13.6986 10.9902 12.6447 11.8175 11.8175C12.6447 10.9902 13.6986 10.4269 14.846 10.1987C15.9934 9.97042 17.1827 10.0876 18.2636 10.5353C19.3444 10.9829 20.2682 11.7411 20.9181 12.7138C21.5681 13.6865 21.915 14.8301 21.915 16C21.9124 17.5679 21.2883 19.0709 20.1796 20.1796C19.0709 21.2883 17.5679 21.9124 16 21.915Z" fill="#F8F8F8"/>
</svg>
