<svg width="32" height="28" viewBox="0 0 32 28" fill="none" xmlns="http://www.w3.org/2000/svg">
<path d="M24.6649 0C28.2178 0 31.1096 2.86535 31.1096 6.38578L31.1111 10.5505C31.1111 10.8557 30.9882 11.1516 30.7704 11.3674C30.5511 11.5847 30.2556 11.7065 29.9444 11.7065C28.6673 11.7065 27.6282 12.7361 27.6282 14.0015C27.6282 15.267 28.6673 16.2966 29.9444 16.2966C30.5884 16.2966 31.1111 16.8145 31.1111 17.4526V21.6158C31.1111 25.1362 28.2209 28 24.668 28H6.44467C2.89178 28 0 25.1362 0 21.6158V17.4526C0 16.8145 0.522667 16.2966 1.16667 16.2966C2.44533 16.2966 3.48444 15.267 3.48444 14.0015C3.48444 12.7685 2.48733 11.8406 1.16667 11.8406C0.857111 11.8406 0.561556 11.7188 0.342222 11.5015C0.122889 11.2842 0 10.9898 0 10.6846L0.00311111 6.38578C0.00311111 2.86535 2.89333 0 6.44622 0H24.6649ZM15.5587 8.01651C15.1169 8.01651 14.7218 8.26005 14.5242 8.65155L13.3902 10.9281L10.8609 11.2934C10.4238 11.3551 10.066 11.651 9.92756 12.0672C9.79067 12.4833 9.90111 12.9334 10.2184 13.2386L12.0524 15.008L11.62 17.5096C11.5453 17.9412 11.7211 18.3697 12.0789 18.6271C12.2811 18.7705 12.516 18.8444 12.754 18.8444C12.936 18.8444 13.1196 18.7997 13.2876 18.7119L15.5556 17.5312L17.8189 18.7088C18.2109 18.9169 18.676 18.8845 19.0322 18.6256C19.3916 18.3697 19.5673 17.9412 19.4927 17.5096L19.0587 15.008L20.8927 13.2386C21.2116 12.9334 21.322 12.4833 21.1836 12.0672C21.0467 11.651 20.6889 11.3551 20.2564 11.2949L17.7224 10.9281L16.5884 8.65309C16.394 8.26159 15.9989 8.01806 15.5587 8.01651Z" fill="#A3A6BC"/>
</svg>
