<svg width="32" height="32" viewBox="0 0 32 32" fill="none" xmlns="http://www.w3.org/2000/svg">
<rect width="32" height="32" rx="6" fill="#9B51E0"/>
<path d="M16.6512 9.1468C17.5725 9.33532 18.4476 9.70368 19.2264 10.2308C19.9926 10.7487 20.6525 11.4086 21.1704 12.1748C21.6973 12.9537 22.0657 13.8287 22.2544 14.75C22.3525 15.2339 22.4008 15.7266 22.3984 16.2204H24L21.6 19.4004L19.2 16.2204H20.7984C20.8 15.8332 20.7632 15.446 20.6864 15.0724C20.5397 14.3564 20.2534 13.6763 19.844 13.0708C19.4414 12.4737 18.9275 11.9598 18.3304 11.5572C17.4062 10.9321 16.3157 10.5988 15.2 10.6004C14.4513 10.6005 13.7102 10.7501 13.02 11.0404C12.6876 11.1816 12.3693 11.3541 12.0696 11.5556C11.7717 11.7579 11.4934 11.9877 11.2384 12.242C10.4655 13.0164 9.93526 13.9995 9.71281 15.0708C9.5624 15.8158 9.5624 16.5834 9.71281 17.3284C9.85968 18.0447 10.1462 18.7252 10.556 19.3308C10.9582 19.9272 11.4716 20.4406 12.068 20.8428C12.9932 21.4671 14.0839 21.8006 15.2 21.8004V23.4004C13.7651 23.3995 12.3629 22.9709 11.1728 22.1692C10.4079 21.6509 9.74869 20.9917 9.23041 20.2268C8.42603 19.0383 7.99736 17.6355 8.00001 16.2004C8.00005 15.713 8.0491 15.2268 8.14641 14.7492C8.3365 13.8286 8.70474 12.9541 9.23041 12.1748C9.48823 11.7922 9.78268 11.4356 10.1096 11.11C10.4365 10.784 10.7933 10.4894 11.1752 10.23C12.3634 9.4263 13.7655 8.99794 15.2 9.0004C15.6874 9.00044 16.1736 9.04949 16.6512 9.1468Z" fill="#F8F8F8"/>
</svg>
