<svg width="22" height="22" viewBox="0 0 22 22" fill="none" xmlns="http://www.w3.org/2000/svg">
<path d="M11 0C13.9174 0 16.7153 1.15893 18.7782 3.22183C20.8411 5.28473 22 8.08262 22 11C22 13.9174 20.8411 16.7153 18.7782 18.7782C16.7153 20.8411 13.9174 22 11 22C8.08262 22 5.28473 20.8411 3.22183 18.7782C1.15893 16.7153 0 13.9174 0 11C0 8.08262 1.15893 5.28473 3.22183 3.22183C5.28473 1.15893 8.08262 0 11 0ZM11 9.66586L8.44486 7.11071C8.26794 6.9338 8.02799 6.8344 7.77779 6.8344C7.52759 6.8344 7.28763 6.9338 7.11071 7.11071C6.9338 7.28763 6.8344 7.52759 6.8344 7.77779C6.8344 8.02799 6.9338 8.26794 7.11071 8.44486L9.66586 11L7.11071 13.5551C7.02311 13.6427 6.95362 13.7467 6.90621 13.8612C6.85881 13.9757 6.8344 14.0983 6.8344 14.2222C6.8344 14.3461 6.85881 14.4688 6.90621 14.5832C6.95362 14.6977 7.02311 14.8017 7.11071 14.8893C7.19832 14.9769 7.30231 15.0464 7.41677 15.0938C7.53123 15.1412 7.6539 15.1656 7.77779 15.1656C7.90167 15.1656 8.02435 15.1412 8.1388 15.0938C8.25326 15.0464 8.35726 14.9769 8.44486 14.8893L11 12.3341L13.5551 14.8893C13.6427 14.9769 13.7467 15.0464 13.8612 15.0938C13.9757 15.1412 14.0983 15.1656 14.2222 15.1656C14.3461 15.1656 14.4688 15.1412 14.5832 15.0938C14.6977 15.0464 14.8017 14.9769 14.8893 14.8893C14.9769 14.8017 15.0464 14.6977 15.0938 14.5832C15.1412 14.4688 15.1656 14.3461 15.1656 14.2222C15.1656 14.0983 15.1412 13.9757 15.0938 13.8612C15.0464 13.7467 14.9769 13.6427 14.8893 13.5551L12.3341 11L14.8893 8.44486C14.9769 8.35726 15.0464 8.25326 15.0938 8.1388C15.1412 8.02435 15.1656 7.90167 15.1656 7.77779C15.1656 7.6539 15.1412 7.53123 15.0938 7.41677C15.0464 7.30231 14.9769 7.19832 14.8893 7.11071C14.8017 7.02311 14.6977 6.95362 14.5832 6.90621C14.4688 6.85881 14.3461 6.8344 14.2222 6.8344C14.0983 6.8344 13.9757 6.85881 13.8612 6.90621C13.7467 6.95362 13.6427 7.02311 13.5551 7.11071L11 9.66586Z" fill="#EB5757"/>
</svg>
