<svg width="22" height="22" viewBox="0 0 22 22" fill="none" xmlns="http://www.w3.org/2000/svg">
<circle cx="11" cy="11" r="11" fill="#219EBC"/>
<path d="M11 6.93691C9.92256 6.93691 8.88924 7.36492 8.12738 8.12679C7.36551 8.88866 6.9375 9.92197 6.9375 10.9994C6.9375 11.1237 6.88811 11.243 6.80021 11.3309C6.7123 11.4188 6.59307 11.4682 6.46875 11.4682C6.34443 11.4682 6.2252 11.4188 6.13729 11.3309C6.04939 11.243 6 11.1237 6 10.9994C6.0001 10.1427 6.22032 9.30043 6.63953 8.55331C7.05874 7.8062 7.66288 7.17932 8.39401 6.73282C9.12514 6.28631 9.95873 6.03516 10.8148 6.00343C11.6709 5.97171 12.5208 6.16048 13.283 6.55164C14.0452 6.94281 14.6941 7.52325 15.1674 8.23729C15.6408 8.95133 15.9227 9.77501 15.9862 10.6293C16.0497 11.4837 15.8927 12.34 15.5301 13.1162C15.1675 13.8924 14.6116 14.5624 13.9156 15.0619H14.5937C14.7181 15.0619 14.8373 15.1113 14.9252 15.1992C15.0131 15.2871 15.0625 15.4063 15.0625 15.5307C15.0625 15.655 15.0131 15.7742 14.9252 15.8621C14.8373 15.95 14.7181 15.9994 14.5937 15.9994H12.7187C12.5944 15.9994 12.4752 15.95 12.3873 15.8621C12.2994 15.7742 12.25 15.655 12.25 15.5307V13.6557C12.25 13.5313 12.2994 13.4121 12.3873 13.3242C12.4752 13.2363 12.5944 13.1869 12.7187 13.1869C12.8431 13.1869 12.9623 13.2363 13.0502 13.3242C13.1381 13.4121 13.1875 13.5313 13.1875 13.6557V14.4232C13.9281 13.9501 14.4954 13.2497 14.8042 12.427C15.113 11.6042 15.1467 10.7035 14.9002 9.85999C14.6537 9.01647 14.1404 8.27562 13.4372 7.74858C12.7339 7.22155 11.8788 6.93675 11 6.93691Z" fill="white"/>
<path d="M12.5625 10.999C12.5625 11.4134 12.3979 11.8109 12.1049 12.1039C11.8118 12.3969 11.4144 12.5615 11 12.5615C10.5856 12.5615 10.1882 12.3969 9.89515 12.1039C9.60212 11.8109 9.4375 11.4134 9.4375 10.999C9.4375 10.5846 9.60212 10.1872 9.89515 9.89417C10.1882 9.60114 10.5856 9.43652 11 9.43652C11.4144 9.43652 11.8118 9.60114 12.1049 9.89417C12.3979 10.1872 12.5625 10.5846 12.5625 10.999ZM11.625 10.999C11.625 10.8333 11.5592 10.6743 11.4419 10.5571C11.3247 10.4399 11.1658 10.374 11 10.374C10.8342 10.374 10.6753 10.4399 10.5581 10.5571C10.4408 10.6743 10.375 10.8333 10.375 10.999C10.375 11.1648 10.4408 11.3238 10.5581 11.441C10.6753 11.5582 10.8342 11.624 11 11.624C11.1658 11.624 11.3247 11.5582 11.4419 11.441C11.5592 11.3238 11.625 11.1648 11.625 10.999Z" fill="white"/>
</svg>
