<svg width="32" height="32" viewBox="0 0 32 32" fill="none" xmlns="http://www.w3.org/2000/svg">
<rect width="32" height="32" rx="6" fill="#EB5757"/>
<path d="M18.3992 16.4566V11.4006C18.3992 11.2415 18.336 11.0888 18.2235 10.9763C18.111 10.8638 17.9583 10.8006 17.7992 10.8006C17.6401 10.8006 17.4875 10.8638 17.375 10.9763C17.2624 11.0888 17.1992 11.2415 17.1992 11.4006V15.6006H16.3992V10.2006C16.3992 10.1218 16.3837 10.0438 16.3535 9.97098C16.3234 9.89818 16.2792 9.83204 16.2235 9.77632C16.1678 9.72061 16.1016 9.67641 16.0288 9.64626C15.956 9.61611 15.878 9.60059 15.7992 9.60059C15.7204 9.60059 15.6424 9.61611 15.5696 9.64626C15.4968 9.67641 15.4307 9.72061 15.375 9.77632C15.3192 9.83204 15.275 9.89818 15.2449 9.97098C15.2147 10.0438 15.1992 10.1218 15.1992 10.2006V15.6006H14.3992V11.4006C14.3992 11.2415 14.336 11.0888 14.2235 10.9763C14.111 10.8638 13.9583 10.8006 13.7992 10.8006C13.6401 10.8006 13.4875 10.8638 13.375 10.9763C13.2624 11.0888 13.1992 11.2415 13.1992 11.4006V16.4006H12.3992V13.0006C12.3992 12.8415 12.336 12.6888 12.2235 12.5763C12.111 12.4638 11.9583 12.4006 11.7992 12.4006C11.6401 12.4006 11.4875 12.4638 11.375 12.5763C11.2624 12.6888 11.1992 12.8415 11.1992 13.0006V18.2958C11.1994 19.2117 11.5057 20.1012 12.0697 20.8228C12.6336 21.5445 13.4226 22.0569 14.3113 22.2785C15.1999 22.5 16.1372 22.4181 16.9739 22.0456C17.8106 21.6731 18.4987 21.0316 18.9288 20.223L21.2912 15.7802C21.3367 15.6966 21.3652 15.6048 21.3752 15.5101C21.3852 15.4155 21.3765 15.3198 21.3495 15.2285C21.3225 15.1372 21.2778 15.0522 21.218 14.9781C21.1581 14.9041 21.0842 14.8426 21.0006 14.7972C20.917 14.7517 20.8252 14.7232 20.7306 14.7132C20.6359 14.7032 20.5402 14.7119 20.4489 14.7389C20.3577 14.7659 20.2726 14.8106 20.1986 14.8704C20.1246 14.9303 20.0631 15.0042 20.0176 15.0878L19.1488 16.6514C18.9488 17.0122 18.3992 16.8698 18.3992 16.457V16.4566Z" fill="#F8F8F8"/>
<path fill-rule="evenodd" clip-rule="evenodd" d="M16 8C20.4184 8 24 11.5816 24 16C24 20.4184 20.4184 24 16 24C11.5816 24 8 20.4184 8 16C8 11.5816 11.5816 8 16 8ZM23.238 16C23.238 12.0024 19.9976 8.762 16 8.762C12.0024 8.762 8.762 12.0024 8.762 16C8.762 19.9976 12.0024 23.238 16 23.238C19.9976 23.238 23.238 19.9976 23.238 16Z" fill="#F8F8F8"/>
</svg>
